# xmcd CD database file
#
# Track frame offsets:
#	150
#	19969
#	35359
#	57648
#	80171
#	97204
#	112817
#	129105
#	153556
#	171044
#	188526
#	205877
#	231163
#	250835
#	273044
#	291117
#	319096
#
# Disc length: 4347 seconds
#
# Revision: 3
# Processed by: cddbd v1.5.2PL0 Copyright (c) Steve Scherf et al.
# Submitted via: CDex 1.70beta2
#
DISCID=e810f911
DTITLE=Blues Guitar Masters - Blues Guitar Masters - CD2
DYEAR=1997
DGENRE=Blues
TTITLE0=Gary Moore - Too Tired
TTITLE1=Albert Collins - Frosty
TTITLE2=A. Collins and R. Cray and J. Copeland - T-Bone Schuffle
TTITLE3=Johnny Copeland - Catch Up With The Blues
TTITLE4=Johnny 'Guitar' Watson - Gangster Of Love
TTITLE5=Johnny Winter - Johnny Guitar
TTITLE6=Lonnie Mack - Double Whammy
TTITLE7=Stevie Ray Vaughan - Say What!
TTITLE8=Vaughan Brothers - White Boots
TTITLE9=ZZ Top - La Grange
TTITLE10=Kenny Wayne Shepherd - One Foot On The Pass
TTITLE11=John Lee Hooker and Carlos Santana - THe Healer
TTITLE12=Roy Rogers - Vida's Place
TTITLE13=Ben Harper - Ground On Down
TTITLE14=Coco Montoya - Talkin' Woman Blues
TTITLE15=Tommy Castro - This Soul is Mine
TTITLE16=CD Extra PC Duke Robillard - Tell Me Why
EXTD=YEAR: 1997
EXTT0=
EXTT1=
EXTT2=
EXTT3=
EXTT4=
EXTT5=
EXTT6=
EXTT7=
EXTT8=
EXTT9=
EXTT10=
EXTT11=
EXTT12=
EXTT13=
EXTT14=
EXTT15=
EXTT16=
PLAYORDER=
